<?xml version="1.0" encoding="iso-8859-1"?>
<!-- Generator: Adobe Illustrator 19.0.0, SVG Export Plug-In . SVG Version: 6.00 Build 0)  -->
<svg xmlns="http://www.w3.org/2000/svg" xmlns:xlink="http://www.w3.org/1999/xlink" version="1.1" id="Capa_1" x="0px" y="0px" viewBox="0 0 512 512" style="enable-background:new 0 0 512 512;" xml:space="preserve" width="512px" height="512px">
<g>
	<g>
		<path d="M501.98,122.99H346.176V10.02c0-5.533-4.486-10.02-10.02-10.02H175.843c-5.534,0-10.02,4.487-10.02,10.02V122.99H10.02    C4.486,122.99,0,127.477,0,133.01V501.98C0,507.513,4.486,512,10.02,512H501.98c5.534,0,10.02-4.487,10.02-10.02V133.01    C512,127.477,507.514,122.99,501.98,122.99z M185.863,20.039h140.274V122.99H185.863V20.039z M491.961,491.961H20.039V143.029    h471.922V491.961z" fill="#FFFFFF"/>
	</g>
</g>
<g>
	<g>
		<path d="M406.294,201.393H227.2c-5.534,0-10.02,4.487-10.02,10.02c0,5.533,4.486,10.02,10.02,10.02h169.074v200.391H115.726    V221.432h31.317c5.534,0,10.02-4.487,10.02-10.02c0-5.533-4.486-10.02-10.02-10.02h-41.337c-5.534,0-10.02,4.487-10.02,10.02    v220.431c0,5.533,4.486,10.02,10.02,10.02h300.587c5.534,0,10.02-4.487,10.02-10.02V211.413    C416.313,205.88,411.827,201.393,406.294,201.393z" fill="#FFFFFF"/>
	</g>
</g>
<g>
	<g>
		<path d="M265.819,68.213c-0.12-0.642-0.321-1.273-0.571-1.874c-0.25-0.611-0.551-1.192-0.922-1.733    c-0.361-0.551-0.782-1.062-1.242-1.523c-0.461-0.461-0.972-0.882-1.523-1.242c-0.541-0.361-1.122-0.671-1.733-0.922    c-0.601-0.25-1.232-0.441-1.874-0.571c-1.293-0.26-2.615-0.26-3.908,0c-0.641,0.13-1.272,0.321-1.874,0.571    c-0.611,0.25-1.192,0.561-1.733,0.922c-0.551,0.361-1.062,0.782-1.523,1.242c-0.461,0.461-0.882,0.972-1.242,1.523    c-0.361,0.541-0.671,1.122-0.922,1.733c-0.25,0.601-0.451,1.231-0.571,1.874c-0.13,0.641-0.2,1.302-0.2,1.954    c0,0.65,0.07,1.313,0.2,1.953c0.12,0.642,0.321,1.273,0.571,1.884c0.25,0.602,0.561,1.183,0.922,1.724    c0.361,0.551,0.782,1.062,1.242,1.523c0.461,0.461,0.972,0.882,1.523,1.252c0.541,0.361,1.122,0.671,1.733,0.922    c0.601,0.25,1.232,0.441,1.874,0.571c0.641,0.13,1.303,0.19,1.954,0.19c0.651,0,1.313-0.061,1.954-0.19    c0.641-0.13,1.272-0.321,1.874-0.571c0.611-0.25,1.192-0.561,1.733-0.922c0.551-0.371,1.062-0.792,1.523-1.252    c0.461-0.461,0.882-0.972,1.242-1.523c0.361-0.541,0.671-1.122,0.922-1.724c0.25-0.61,0.451-1.241,0.571-1.884    c0.13-0.641,0.2-1.303,0.2-1.953C266.02,69.516,265.949,68.854,265.819,68.213z" fill="#FFFFFF"/>
	</g>
</g>
<g>
	<g>
		<path d="M332.149,351.687H171.836c-5.534,0-10.02,4.487-10.02,10.02c0,5.533,4.486,10.02,10.02,10.02h160.313    c5.534,0,10.02-4.487,10.02-10.02C342.168,356.174,337.683,351.687,332.149,351.687z" fill="#FFFFFF"/>
	</g>
</g>
<g>
	<g>
		<path d="M196.945,209.459c-0.13-0.641-0.321-1.273-0.571-1.874c-0.25-0.611-0.561-1.191-0.922-1.732    c-0.361-0.552-0.781-1.063-1.242-1.524c-0.461-0.461-0.972-0.882-1.523-1.242c-0.541-0.36-1.122-0.671-1.733-0.922    c-0.601-0.25-1.232-0.451-1.874-0.57c-1.292-0.261-2.625-0.261-3.918,0c-0.641,0.119-1.272,0.32-1.874,0.57    c-0.601,0.25-1.182,0.562-1.723,0.922c-0.551,0.361-1.062,0.781-1.523,1.242c-0.471,0.461-0.882,0.972-1.252,1.524    c-0.361,0.541-0.671,1.121-0.922,1.732c-0.25,0.602-0.441,1.232-0.571,1.874s-0.19,1.303-0.19,1.954c0,0.65,0.06,1.313,0.19,1.954    c0.13,0.641,0.321,1.273,0.571,1.873c0.251,0.611,0.561,1.192,0.922,1.733c0.371,0.551,0.782,1.062,1.252,1.523    c0.461,0.462,0.972,0.883,1.523,1.242c0.541,0.361,1.122,0.671,1.723,0.922c0.601,0.25,1.232,0.451,1.874,0.571    c0.651,0.13,1.303,0.2,1.964,0.2c0.651,0,1.313-0.07,1.954-0.2c0.641-0.12,1.273-0.321,1.874-0.571    c0.611-0.25,1.192-0.561,1.733-0.922c0.551-0.36,1.062-0.781,1.523-1.242c0.461-0.461,0.882-0.972,1.242-1.523    c0.361-0.541,0.671-1.122,0.922-1.733c0.25-0.601,0.441-1.231,0.571-1.873c0.13-0.642,0.2-1.304,0.2-1.954    C197.145,210.762,197.075,210.099,196.945,209.459z" fill="#FFFFFF"/>
	</g>
</g>
<g>
</g>
<g>
</g>
<g>
</g>
<g>
</g>
<g>
</g>
<g>
</g>
<g>
</g>
<g>
</g>
<g>
</g>
<g>
</g>
<g>
</g>
<g>
</g>
<g>
</g>
<g>
</g>
<g>
</g>
</svg>
